<?xml version="1.0" encoding="utf-8"?>
<!-- Generator: Adobe Illustrator 28.1.0, SVG Export Plug-In . SVG Version: 6.00 Build 0)  -->
<svg version="1.1" id="Слой_1" xmlns="http://www.w3.org/2000/svg" xmlns:xlink="http://www.w3.org/1999/xlink" x="0px" y="0px"
	 viewBox="0 0 271.66 318.64" style="enable-background:new 0 0 271.66 318.64;" xml:space="preserve">
<style type="text/css">
	.st0{clip-path:url(#SVGID_00000069372746310584762170000012045430005234950806_);}
</style>
<g>
	<defs>
		<rect id="SVGID_1_" x="15.8" y="17.91" width="241.89" height="283.62"/>
	</defs>
	<clipPath id="SVGID_00000024694568608362382980000012865492450158720670_">
		<use xlink:href="#SVGID_1_"  style="overflow:visible;"/>
	</clipPath>
	<path style="clip-path:url(#SVGID_00000024694568608362382980000012865492450158720670_);" d="M69.61,180.28
		c0.2-4.81-0.72-9.38-2.38-13.73c-1.29-3.37-2.74-6.64-4.13-9.95c-1.46-3.45-2.79-6.95-3.66-10.68c-1.08-4.63-1.5-9.36-1.52-14.14
		c-0.02-3.39,0.02-113.79,0.02-113.79H43.16v37.74l-12.1-13.75v-24H16.28c0,0-0.22,103.97-0.19,106.24
		c0.05,4.51,0.26,9.01,0.45,13.52c0.14,3.4,0.78,6.71,1.66,9.94c1.09,4.01,2.74,7.73,4.32,11.49c1.39,3.3,2.74,6.64,3.89,10.07
		c1.43,4.3,1.9,8.86,1.29,13.43c-0.41,3.08-1.11,6.13-1.89,9.11c-1.29,4.93-2.83,9.76-4.12,14.68c-1.62,6.18-2.85,12.49-3.64,18.91
		c-0.53,4.3-1.1,8.6-1.44,12.93c-0.32,4.13-0.43,8.3-0.51,12.45c-0.15,7.45-0.29,14.91-0.29,22.36c-0.01,6.95,0.16,13.89,0.24,20.84
		c0.02,1.93,0.01,5.02,0.03,6.95c0,0.24,0,0.43,0.01,0.61H30.7c0-0.29,0-0.56,0-0.83c-0.07-4.46-0.15-10.09-0.22-14.55
		c-0.06-4.06-0.2-8.11-0.16-12.17c0.07-6.8,0.33-13.59,0.36-20.38c0.04-6.96,0.27-13.89,1-20.79c1.04-9.88,2.68-19.61,5.3-29.08
		c1.32-4.76,2.7-9.51,4.03-14.27c2.32-8.25,1.85-16.28-1.35-24.09c-0.97-2.37-1.9-4.77-2.98-7.06c-4.04-8.55-5.99-17.71-5.95-27.51
		c0.02-5.2,0.33-69.87,0.33-69.87l12.1,13.75c0,0,0.07,54.09,0.38,61.31c0.12,2.66,0.47,5.33,0.92,7.95
		c0.87,5.11,2.81,9.73,4.78,14.35c1.44,3.38,2.88,6.79,4.07,10.3c1.76,5.18,2.18,10.56,1.25,16.09c-0.65,3.84-1.65,7.54-2.79,11.19
		c-3.97,12.83-6.64,26.01-7.79,39.63c-0.4,4.79-0.72,9.58-0.71,14.4c0,4.46,0,8.93-0.09,13.39c-0.11,5.88-0.46,11.74-0.26,17.63
		c0.22,6.23,0.24,13.64,0.35,19.87c0.01,0.24,0.02,0.49,0.03,0.73h14.55c0-0.17,0.01-0.36,0-0.59c-0.04-3.25-0.12-7.66-0.15-10.9
		c-0.08-6.44-0.21-12.88-0.18-19.32c0.02-6.04,0.3-12.07,0.32-18.1c0.03-6.85,0.3-13.68,1.04-20.48c0.99-8.97,2.41-17.82,4.71-26.45
		c1.37-5.17,2.91-10.28,4.35-15.43C68.85,187.01,69.47,183.7,69.61,180.28 M108.52,180.98c-0.34,9.2-3.56,18.28-6.13,27.41
		c-3.57,12.67-3.79,25.87-5.49,38.84c-0.28,2.1-0.57,4.21-0.84,6.27c-0.99,0.4-10.29,0.48-11.9,0.12c0-0.52-0.05-1.08,0.01-1.61
		c1.97-18.17,3.13-35.87,8.49-53.48c1.49-4.89,3.19-9.74,3.91-14.8c1.25-8.76-2.23-16.3-5.37-24.23c-1.29-3.25-2.68-6.45-3.83-9.77
		c-1.76-5.12-2.46-10.54-2.59-16.04c-0.13-5.32-0.1-10.64-0.11-15.96c0-2.51,0.02-83.68,0.02-83.68H96.7c0,0,0.15,94.32,0.16,98.71
		c0.02,7.59,1.42,14.87,4.32,21.7c1.68,3.95,3.39,7.88,4.97,11.89C108.08,171.27,108.7,176.14,108.52,180.98 M121.91,172.59
		c-2.32-13.82-10.1-26-10.21-40.18c-0.03-4.62-0.18-106.43-0.18-106.43c0-4.92-3.22-8.07-7.92-8.07H77.77
		c-4.7,0-7.92,3.15-7.92,8.07c0,0,0.03,96.74,0.04,100.46c0.01,3.23,0.13,6.46,0.25,9.69c0.18,4.82,0.97,9.53,2.56,13.96
		c1.34,3.73,2.94,7.32,4.39,11c3.38,8.54,5.56,15.77,4.12,25.1c-1.05,6.78-3.27,13.31-5.01,19.94c-2.48,9.46-3.98,19.15-5.07,28.86
		c-0.56,4.99-1,9.99-1.41,14.99c-0.3,3.7-1.6,8.08-0.89,11.75c0.69,3.54,3.34,5.96,6.41,5.97c8.49,0.02,19.22,0.01,27.71,0
		c1.48,0,2.84-0.54,4.07-1.51c2.18-1.72,3.09-4.3,3.41-7.26c0.26-2.38,0.49-4.76,0.75-7.13c1.01-9.18,1.68-18.4,2.71-27.54
		c1.84-16.41,9.62-30.45,8.57-46.93C122.36,175.77,122.18,174.19,121.91,172.59 M148.61,187.88c0.89-3.45,1.28-7.01,1.06-10.66
		c-0.24-3.96-1.14-7.69-2.54-11.24c-1.46-3.71-3.07-7.35-4.61-11.02c-2.34-5.59-3.91-11.45-4.23-17.72
		c-0.19-3.64-0.33-7.29-0.37-10.94c-0.03-2.71,0.01-21.43,0.06-41.23l-0.1-10.9h8.7v-16h-31.89v16h8.91c0,0,0.04,55.76,0.1,60.88
		c0.03,2.16,0.33,4.33,0.61,6.48c0.65,4.95,2.17,9.56,4.04,14.01c1.54,3.67,3.15,7.3,4.57,11.03c2.5,6.53,3.14,13.32,1.47,20.28
		c-0.97,4.03-2.05,8.04-3.24,11.99c-3.86,12.79-6.12,25.99-7.18,39.48c-0.33,4.13-0.43,8.3-0.5,12.45
		c-0.15,9.07-0.27,18.15-0.29,27.23c-0.02,5.58,0.17,11.15,0.25,16.73c0.03,1.67,0.01,4.51,0.02,6.19c0,0.25,0.01,0.44,0.01,0.62
		h14.43c0.02-0.37,0.01-0.87,0-1.55c-0.1-8.01-0.3-17.19-0.3-25.2c-0.01-6.8,0.24-13.59,0.3-20.38c0.06-7.66,0.31-15.3,1.17-22.91
		c1.13-9.97,2.86-19.77,5.59-29.31C146.01,197.42,147.38,192.68,148.61,187.88 M203.27,181.08c0.32-5.51-0.91-10.64-2.82-15.59
		c-0.2-0.52-0.46-0.8-0.82-0.93h-13.24c-0.18,0.05-0.37,0.11-0.58,0.16c0.48,1.43,0.93,2.68,1.33,3.95
		c1.7,5.27,2.33,10.69,1.24,16.24c-0.62,3.15-1.4,6.25-2.21,9.34c-1.52,5.79-3.27,11.51-4.65,17.35c-1.85,7.8-2.94,15.79-3.66,23.85
		c-0.46,5.1-0.72,10.19-0.74,15.32c-0.03,6.64-0.17,13.28-0.27,19.93c-0.01,0.81-0.09,1.62-0.1,2.43c-0.02,2.33-0.04,4.66-0.01,6.99
		c0.02,2.13,0.12,4.26,0.14,6.39c0.01,1.18-0.1,1.32-1.1,1.33c-2.47,0.02-7.36,0.02-9.82,0c-0.94-0.01-1.07-0.14-1.09-1.21
		c-0.07-5.27-0.17-10.55-0.13-15.82c0.04-5.43,0.32-10.85,0.32-16.28c-0.01-8.23,0.32-16.42,1.32-24.57
		c1.05-8.54,2.5-16.98,4.75-25.19c1.3-4.77,2.71-9.5,4.04-14.27c0.9-3.24,1.52-6.55,1.67-9.97c0.2-4.81-0.73-9.38-2.39-13.72
		c-1.29-3.36-2.79-6.61-4.11-9.96c-1.12-2.84-2.23-5.7-3.12-8.65c-1.58-5.21-2.04-10.67-2.07-16.17
		c-0.02-5.32-0.09-57.96-0.09-57.96h12.26v11h0.01c0.06,22.46,0.17,45.29,0.4,51.35c0.16,4.17,0.82,8.23,1.97,12.17
		c0.43,1.47,0.43,1.47,1.69,1.48c3.96,0,7.91,0,11.87,0c0.33,0,0.67-0.04,1.18-0.08c-0.1-0.43-0.14-0.67-0.21-0.9
		c-1.6-5.31-2.22-10.83-2.28-16.43c-0.04-3.78-0.04-66.2-0.04-66.2c0-4.92-4.34-8.29-8.87-8.29h-24.9c-4.53,0-7.63,2.79-7.63,7.71
		c0,0,0.21,54.42,0.23,57.68c0.02,4.46,0.14,8.92,0.26,13.38c0.08,2.95,0.54,5.83,1.16,8.68c0.99,4.6,2.76,8.81,4.55,13.01
		c1.34,3.16,2.7,6.33,3.84,9.6c1.87,5.35,2.55,10.94,1.42,16.65c-0.67,3.39-1.47,6.76-2.42,10.06c-1.99,6.9-4.01,13.77-5.36,20.9
		c-1.04,5.48-1.92,11-2.43,16.59c-0.38,4.18-0.88,8.36-0.95,12.55c-0.16,9.48-0.22,18.96-0.49,28.44
		c-0.17,6.08,0.13,12.17,0.23,18.25c0.01,0.66,0.11,1.31,0.14,1.97c0.15,3.55,2.72,7.66,7.14,7.7c8.04,0.07,18.5,0.08,26.54,0
		c4.57-0.04,7.08-3.79,7.04-8.1c-0.03-3.7-0.13-7.4-0.17-11.11c-0.04-3.14-0.12-6.29-0.07-9.43c0.09-6.14,0.38-12.27,0.38-18.4
		c-0.01-8.03,0.32-16.01,1.28-23.96c0.87-7.23,1.96-14.41,3.75-21.41c1.49-5.81,3.18-11.55,4.79-17.32
		C202.3,188.17,203.06,184.69,203.27,181.08 M257.57,176.38c-0.35-3.98-1.38-7.73-2.83-11.3c-1.43-3.51-2.93-6.98-4.41-10.46
		c-2.91-6.82-4.26-14.1-4.35-21.7c-0.03-2.94-0.27-23.07-0.3-47.85l0.02-67.07h-14.77c0,0,0.39,113.11,0.6,117.99
		c0.09,2.11,0.32,4.23,0.62,6.32c0.71,4.83,2.25,9.31,4.1,13.66c1.46,3.43,2.96,6.85,4.31,10.34c2.54,6.56,3.21,13.4,1.61,20.42
		c-0.82,3.61-1.81,7.17-2.87,10.69c-2.59,8.53-4.65,17.24-5.94,26.17c-0.92,6.32-2.04,28.76-2.13,29.59
		c-1.55,0.32-10.95,0.42-12.5,0.04c0-0.7,0.63-16.59,0.95-19.92c0.79-8.27,2.02-16.46,4.04-24.44c1.46-5.77,3.15-11.46,4.74-17.19
		c0.91-3.28,1.69-6.6,1.95-10.05c0.39-5.17-0.41-10.12-2.2-14.81c-1.34-3.5-2.9-6.89-4.26-10.38c-1.16-2.99-2.3-6-3.22-9.09
		c-1.58-5.32-1.92-10.91-1.95-16.5c-0.02-3.78-0.02-22.6,0-45.77h0.06V17.99h-14.77v67.07h0.09c0.05,25.17,0.1,45.78,0.15,49.15
		c0.04,2.47,0.33,4.94,0.64,7.39c0.61,4.91,2.15,9.46,3.99,13.88c1.55,3.72,3.19,7.39,4.63,11.17c2.38,6.23,3.07,12.75,1.61,19.41
		c-0.88,4.01-1.96,7.96-3.15,11.86c-5.46,17.86-6.77,31.74-7.44,40.35c-0.33,4.29-0.42,8.6-0.51,12.91
		c-0.14,6.23-0.27,12.47-0.26,18.71c0.01,8.06,0.15,16.13,0.22,24.19c0.02,1.93,0.01,3.86,0.02,5.78c0,0.29,0.01,0.98,0.02,1.67
		h14.65c-0.01-0.63-0.03-1.21-0.03-1.35c-0.02-3.65,0.05-7.22,0.03-10.88c-0.04-6.79,0.01-13.63,0-20.42c0.01-0.17,0.01-0.33,0-0.48
		c0-0.21,0-0.42,0-0.63c0.17-0.09,12.17,0,12.17,0s0,8.73,0.02,14.03c0.02,6.03,0.24,12.06,0.34,18.1c0,0.23,0.02,0.95,0.04,1.64
		h14.6c0-0.81,0-1.73,0-2.05c-0.07-4.16-0.15-8.32-0.22-12.48c-0.03-1.67-0.07-3.35-0.1-5.02c-0.04-3.09-0.13-6.19-0.08-9.28
		c0.1-6.59,0.39-13.18,0.38-19.77c-0.01-8.34,0.48-16.6,1.52-24.85c1.16-9.25,2.98-18.3,5.51-27.15c1.32-4.6,2.63-9.21,3.81-13.86
		C257.6,183.6,257.88,180.01,257.57,176.38"/>
</g>
</svg>
